<svg width="40" height="40" viewBox="0 0 40 40" fill="none" xmlns="http://www.w3.org/2000/svg">
<path d="M23.3333 3.33331H9.99999C9.11593 3.33331 8.26809 3.6845 7.64297 4.30962C7.01785 4.93474 6.66666 5.78259 6.66666 6.66665V33.3333C6.66666 34.2174 7.01785 35.0652 7.64297 35.6903C8.26809 36.3155 9.11593 36.6666 9.99999 36.6666H30C30.884 36.6666 31.7319 36.3155 32.357 35.6903C32.9821 35.0652 33.3333 34.2174 33.3333 33.3333V13.3333M23.3333 3.33331L33.3333 13.3333M23.3333 3.33331L23.3333 13.3333H33.3333M26.6667 21.6666H13.3333M26.6667 28.3333H13.3333M16.6667 15H13.3333" stroke="#1E1E1E" stroke-width="3.5" stroke-linecap="round" stroke-linejoin="round"/>
</svg>
