<svg width="50" height="50" viewBox="0 0 50 50" fill="none" xmlns="http://www.w3.org/2000/svg">
<path d="M14.5833 22.9165V14.5832C14.5833 11.8205 15.6808 9.17098 17.6343 7.21748C19.5878 5.26397 22.2373 4.1665 25 4.1665C27.7627 4.1665 30.4122 5.26397 32.3657 7.21748C34.3192 9.17098 35.4167 11.8205 35.4167 14.5832V22.9165M10.4167 22.9165H39.5833C41.8845 22.9165 43.75 24.782 43.75 27.0832V41.6665C43.75 43.9677 41.8845 45.8332 39.5833 45.8332H10.4167C8.11548 45.8332 6.25 43.9677 6.25 41.6665V27.0832C6.25 24.782 8.11548 22.9165 10.4167 22.9165Z" stroke="currentColor" stroke-width="4" stroke-linecap="round" stroke-linejoin="round"/>
</svg>
